<svg width="120" height="120" viewBox="0 0 120 120" fill="none" xmlns="http://www.w3.org/2000/svg">
<g clip-path="url(#clip0_3356_18171)">
<path d="M4.21875 81.3039L4.21875 88.8113C4.21875 87.1531 8.18285 85.5837 11.1394 84.6977V83.3117L10.2311 77.1433C7.38464 77.7314 4.21881 79.1948 4.21875 81.3039Z" fill="#0C296E"/>
<path d="M4.22395 80.9846V89.3883C2.93475 101.282 36.2333 97.3952 41.684 96.2917C47.1262 95.19 55.079 93.8767 63.0157 95.563C63.0851 95.5643 62.946 95.5656 63.0157 95.5669V87.0571C52.8035 85.6447 49.7006 86.4674 41.684 87.9278C33.6673 89.3883 3.21926 93.6774 4.22395 80.9846Z" fill="#3370FF"/>
<path d="M4.22395 80.7639V80.9846C4.22973 80.9116 4.21592 80.8381 4.22395 80.7639Z" fill="#3370FF"/>
<path d="M25.6836 15.126C25.6836 12.9168 27.4745 11.126 29.6836 11.126H97.3523C99.5614 11.126 101.352 12.9168 101.352 15.126V52.619H70.7793C68.5702 52.619 66.7793 54.4099 66.7793 56.619V68.3143H35.848L25.6836 79.3788V68.3143L25.6836 15.126Z" fill="#FFC60A"/>
<path d="M18.2982 110.76V102.602C14.7454 102.21 8.98017 101.974 6.53516 98.8496V107.008C8.98569 110.139 14.5623 110.347 18.2982 110.76Z" fill="#00D6B9"/>
<path d="M30.083 22.3749C31.5385 32.8763 32.3043 41.5926 33.1706 51.4531C33.3231 53.1892 33.4788 54.9607 33.6418 56.7837C34.2503 55.9041 34.9157 54.941 35.6031 53.946C36.6886 52.3749 37.8291 50.7241 38.8879 49.1958C39.8953 47.7417 40.8152 46.4181 41.5138 45.4222C42.2007 44.4431 42.697 43.7469 42.8388 43.5814C43.0149 43.3759 43.3571 43.1165 43.7359 42.9281C44.1075 42.7433 44.6277 42.5698 45.1349 42.6866C45.4026 42.7483 45.6538 42.8888 45.8558 43.1253C46.053 43.3563 46.1837 43.6557 46.258 44.0103C46.4041 44.7076 46.3506 45.7094 46.0428 47.112C45.7298 48.5378 44.6004 51.6716 43.1074 55.5224C41.6073 59.3913 39.7217 64.0296 37.8751 68.4927C36.0283 72.9564 34.2194 77.2472 32.8724 80.4219C32.1988 82.0094 31.6407 83.3179 31.2509 84.2296C31.056 84.6854 30.9032 85.0421 30.7991 85.2848L30.6654 85.5964L28.893 97.6463C28.8528 97.9195 28.5987 98.1084 28.3255 98.0682C28.0523 98.028 27.8634 97.774 27.9036 97.5008L29.6855 85.3862C29.6918 85.3433 29.7039 85.301 29.721 85.2611L30.1802 85.459C29.7209 85.2615 29.721 85.2611 29.721 85.2611L29.88 84.8907C29.984 84.6483 30.1366 84.292 30.3314 83.8365C30.7209 82.9255 31.2787 81.6178 31.9518 80.0313C33.2981 76.8583 35.1057 72.5704 36.9511 68.1104C38.7966 63.6499 40.6789 59.0195 42.175 55.1609C43.6781 51.2841 44.7733 48.2314 45.066 46.8977C45.3638 45.5408 45.3818 44.7048 45.2792 44.2153C45.2292 43.9765 45.1556 43.8453 45.0953 43.7746C45.0396 43.7094 44.98 43.6771 44.9104 43.6611C44.7428 43.6225 44.4823 43.6738 44.1811 43.8235C43.8872 43.9697 43.6647 44.1545 43.5981 44.2321C43.4973 44.3497 43.0411 44.9865 42.3325 45.9965C41.6356 46.9899 40.7171 48.3115 39.7099 49.7652C38.6685 51.2684 37.5175 52.9344 36.4226 54.5191C35.4179 55.9734 34.4604 57.3592 33.6784 58.4879C33.5586 58.6609 33.3433 58.7403 33.1398 58.6866C32.9364 58.633 32.7883 58.4577 32.7694 58.2481C32.5602 55.9321 32.3645 53.7044 32.1738 51.5335C31.3076 41.675 30.5442 32.9868 29.0925 22.5122L29.0922 22.5106L29.0918 22.5076L29.0898 22.4935C29.0888 22.4865 29.0874 22.4774 29.0857 22.4664C29.0843 22.4569 29.0826 22.446 29.0807 22.4337C29.0723 22.3804 29.0591 22.3009 29.0405 22.1993C29.0034 21.996 28.9446 21.705 28.8589 21.3589C28.6869 20.6638 28.4097 19.7599 27.9884 18.9007C27.5645 18.0363 27.0135 17.2557 26.3136 16.7625C25.7149 16.3406 24.9871 16.1134 24.0744 16.2514C24.1121 22.4127 24.338 27.3957 24.5849 32.264C24.6147 32.8511 24.6447 33.4366 24.6748 34.0224C24.8998 38.4008 25.1254 42.7931 25.228 47.9682C25.2335 48.2443 25.0141 48.4725 24.738 48.478C24.4619 48.4835 24.2337 48.2641 24.2282 47.988C24.1259 42.8296 23.9011 38.4531 23.6762 34.074C23.6461 33.4883 23.616 32.9024 23.5862 32.3147C23.3424 27.5073 23.1184 22.5762 23.0761 16.5073C22.4892 16.7053 22.004 16.9568 21.5946 17.2729C21.0522 17.6918 20.6185 18.243 20.2605 18.986C19.5322 20.4978 19.1381 22.7522 18.7869 26.1712L17.1827 49.8841L17.1823 49.8912C17.1637 50.1654 16.9274 50.3732 16.6531 50.3566C16.3788 50.3399 16.1694 50.105 16.1841 49.8306L16.6834 49.8575C16.1842 49.8306 16.1842 49.8293 16.1842 49.8293L16.2002 49.5362C16.2107 49.3441 16.2262 49.0623 16.2462 48.7031C16.2863 47.9845 16.3443 46.9561 16.4164 45.7164C16.5605 43.237 16.7605 39.912 16.9845 36.5302C17.2084 33.149 17.4563 29.7081 17.6962 26.9981C17.8161 25.6436 17.9344 24.4673 18.047 23.5707C18.1033 23.1228 18.1588 22.7397 18.2132 22.4367C18.2542 22.2088 18.299 21.9988 18.3516 21.8366C18.2999 20.792 18.0755 20.1032 17.8071 19.7089C17.5454 19.3245 17.2712 19.2457 17.024 19.294C16.7286 19.3518 16.3228 19.6198 15.9192 20.242C15.5229 20.8527 15.1656 21.7523 14.9488 22.9454C13.2739 32.164 12.1208 40.1257 11.276 51.074C11.2547 51.3493 11.0143 51.5553 10.739 51.534C10.4637 51.5128 10.2577 51.2724 10.2789 50.997C10.3411 50.1914 10.4049 49.4019 10.4705 48.6268C10.3927 48.5558 10.3367 48.4597 10.3162 48.348L7.41651 32.5341C7.13133 31.4282 6.83306 30.8392 6.55321 30.5751C6.42866 30.4576 6.31906 30.4153 6.21255 30.4067C6.099 30.3976 5.94217 30.4235 5.7256 30.5249C5.34957 30.7598 5.12152 31.2645 5.02311 31.9925C4.92601 32.7108 4.97436 33.4993 5.01349 34.1068L5.01422 34.1217C5.12269 37.2645 6.60456 48.1695 8.15454 59.1292C8.59549 62.2472 9.04159 65.3671 9.46206 68.3079C10.5155 75.6753 11.4081 81.9183 11.6564 84.1885C11.6613 84.2329 11.6602 84.2776 11.6532 84.3217L7.93316 107.648C7.88968 107.921 7.63336 108.107 7.36066 108.063C7.08796 108.02 6.90215 107.763 6.94564 107.491L10.655 84.2307C10.3987 81.9242 9.51782 75.7631 8.47658 68.4808C8.05518 65.5335 7.60753 62.4026 7.16439 59.2692C5.62112 48.357 4.12798 37.3848 4.01508 34.1637C3.97683 33.5699 3.92006 32.6875 4.03212 31.8585C4.14179 31.0472 4.43341 30.1297 5.23215 29.6546C5.24466 29.6472 5.2575 29.6403 5.27061 29.634C5.59835 29.476 5.94273 29.3818 6.29278 29.4099C6.65346 29.439 6.97065 29.594 7.23957 29.8479C7.74524 30.3251 8.09901 31.1702 8.38945 32.3024C8.39234 32.3137 8.39484 32.325 8.39694 32.3365L10.7721 45.2895C11.564 37.0679 12.5896 30.3362 13.9649 22.7666C14.199 21.4782 14.5949 20.4458 15.0803 19.6977C15.5583 18.961 16.1627 18.4435 16.8321 18.3126C17.5497 18.1723 18.195 18.5017 18.6337 19.1461C18.7382 19.2997 18.8323 19.472 18.9154 19.6623C19.0488 19.2613 19.1959 18.8919 19.3596 18.552C19.7738 17.6923 20.2989 17.01 20.9834 16.4814C21.6655 15.9547 22.4815 15.5993 23.4514 15.3577C24.8333 15.0135 25.9772 15.3021 26.8896 15.945C27.782 16.5738 28.4253 17.5205 28.8862 18.4604C29.3497 19.4056 29.6477 20.3833 29.8297 21.1186C29.921 21.4877 29.984 21.7991 30.0242 22.0194C30.0444 22.1296 30.0589 22.2173 30.0685 22.2781C30.0733 22.3085 30.0768 22.3323 30.0793 22.3488L30.0821 22.3682L30.0828 22.3737L30.083 22.3749Z" fill="#0C296E"/>
<path d="M25.6836 16.4182V15.3623C26.1226 15.4883 26.5242 15.6887 26.8889 15.9456C27.7812 16.5744 28.4246 17.521 28.8855 18.461C29.349 19.4062 29.6469 20.3839 29.8289 21.1192C29.9203 21.4883 29.9832 21.7997 30.0235 22.02C30.0437 22.1302 30.0582 22.2178 30.0678 22.2787C30.0726 22.3091 30.0761 22.3328 30.0785 22.3494L30.0813 22.3688L30.0823 22.3755C31.5378 32.8769 32.3035 41.5932 33.1699 51.4537C33.3224 53.1898 33.478 54.9613 33.6411 56.7843C34.248 55.907 34.9113 54.9469 35.5968 53.9547L35.6024 53.9466C36.6878 52.3755 37.8284 50.7247 38.8872 49.1963C39.8945 47.7423 40.8145 46.4187 41.5131 45.4228C42.2 44.4437 42.6963 43.7474 42.8381 43.582C43.0142 43.3765 43.3563 43.1171 43.7351 42.9287C44.1068 42.7439 44.627 42.5703 45.1341 42.6872C45.4018 42.7488 45.6531 42.8893 45.855 43.1259C46.0523 43.3569 46.183 43.6563 46.2573 44.0109C46.4034 44.7082 46.3499 45.71 46.042 47.1126C45.7291 48.5384 44.5997 51.6722 43.1066 55.523C41.6264 59.3405 39.771 63.9071 37.9479 68.3154H36.8657C36.8939 68.2473 36.9221 68.1792 36.9503 68.111C38.7958 63.6505 40.6781 59.0201 42.1742 55.1615C43.6774 51.2847 44.7726 48.232 45.0653 46.8983C45.3631 45.5414 45.381 44.7054 45.2785 44.2159C45.2285 43.9771 45.1549 43.8459 45.0945 43.7752C45.0389 43.71 44.9793 43.6777 44.9096 43.6617C44.7421 43.623 44.4815 43.6744 44.1804 43.8241C43.8865 43.9703 43.6639 44.155 43.5974 44.2327C43.4966 44.3503 43.0404 44.987 42.3317 45.9971C41.6349 46.9904 40.7163 48.3121 39.7092 49.7658C38.6696 51.2664 37.5209 52.9291 36.4277 54.5113L36.4219 54.5197C35.4171 55.974 34.4597 57.3598 33.6776 58.4885C33.5578 58.6614 33.3426 58.7409 33.1391 58.6872C32.9357 58.6335 32.7876 58.4583 32.7687 58.2487C32.5597 55.9342 32.3641 53.708 32.1734 51.5384L32.173 51.534C31.3069 41.6756 30.5435 32.9873 29.0917 22.5128L29.0915 22.5112L29.0911 22.5082L29.0891 22.4941L29.085 22.467L29.0799 22.4343C29.0715 22.381 29.0584 22.3015 29.0398 22.1999C29.0026 21.9965 28.9439 21.7055 28.8582 21.3594C28.6862 20.6643 28.4089 19.7605 27.9876 18.9013C27.5638 18.0369 27.0128 17.2563 26.3129 16.7631C26.1175 16.6254 25.9084 16.5085 25.6836 16.4182Z" fill="#0C296E"/>
<path d="M50.1992 26.5928C50.1992 26.3166 50.4231 26.0928 50.6992 26.0928H89.3945C89.6706 26.0928 89.8945 26.3166 89.8945 26.5928C89.8945 26.8689 89.6706 27.0928 89.3945 27.0928H50.6992C50.4231 27.0928 50.1992 26.8689 50.1992 26.5928Z" fill="#0C296E"/>
<path d="M66.4922 36.5928C66.4922 36.3166 66.716 36.0928 66.9922 36.0928H89.3927C89.6689 36.0928 89.8927 36.3166 89.8927 36.5928C89.8927 36.8689 89.6689 37.0928 89.3927 37.0928H66.9922C66.716 37.0928 66.4922 36.8689 66.4922 36.5928Z" fill="#0C296E"/>
<path d="M116.062 56.6221C116.062 54.4129 114.272 52.6221 112.063 52.6221H101.354V64.3184C101.354 66.5276 99.5635 68.3184 97.3543 68.3184L66.7817 68.3184V80.6459C66.7817 82.855 68.5726 84.6459 70.7817 84.6459L91.4585 84.6459H109.453L116.062 90.9152V84.6459L116.062 56.6221Z" fill="#00D6B9"/>
<path d="M31.3125 109.716V103.623C37.8708 104.327 45.1083 103.654 52.1599 102.999C52.5654 102.961 52.9704 102.924 53.3745 102.886C60.9584 102.186 68.2603 101.601 74.5079 102.712V108.353C67.8126 107.337 60.4964 108.053 53.2133 108.822C52.9333 108.851 52.6533 108.881 52.3734 108.911C45.1929 109.671 38.0471 110.427 31.3125 109.716ZM31.3125 102.617C30.9772 102.58 30.6439 102.54 30.3125 102.495V110.607C37.4195 111.5 44.9783 110.699 52.4332 109.91C60.103 109.098 67.663 108.297 74.5079 109.364C74.8429 109.416 75.1763 109.473 75.5079 109.535V101.885C68.5897 100.469 60.3886 101.23 52.1076 101.999C44.9793 102.661 37.7918 103.329 31.3125 102.617Z" fill="#0C296E"/>
</g>
<defs>
<clipPath id="clip0_3356_18171">
<rect width="120" height="120" fill="white"/>
</clipPath>
</defs>
</svg>
